<svg width="907" height="908" viewBox="0 0 907 908" fill="none" xmlns="http://www.w3.org/2000/svg">
<path fill-rule="evenodd" clip-rule="evenodd" d="M658.941 201.375C695.375 253.546 696.274 319.413 700.51 382.906C704.317 439.965 738.269 482.276 722.635 537.284C703.275 605.398 661.74 705.886 599.247 739.19C536.81 772.464 484.547 713.289 414.977 700.417C348.701 688.154 256.628 704.668 201.685 665.629C142.315 623.445 89.148 557.287 89.403 484.458C89.6523 413.235 163.149 368.724 202.931 309.647C236.02 260.509 256.397 204.851 302.63 167.811C357.58 123.788 419.09 73.7053 489.19 80.3086C560.12 86.99 618.15 142.965 658.941 201.375Z" fill="#C8C8C8"/>
</svg>
