<svg width="206" height="170" viewBox="0 0 206 170" fill="none" xmlns="http://www.w3.org/2000/svg" class="three-flower">
<line x1="105.5" y1="169.014" x2="105.5" y2="94.9865" stroke="#76563F" stroke-width="3"/>
<line x1="55" y1="128.172" x2="55" y2="56.8279" stroke="#76563F" stroke-width="3"/>
<line x1="158.5" y1="119.245" x2="158.5" y2="53.7548" stroke="#76563F" stroke-width="3"/>
<path d="M84.9724 75.3218C80.0806 75.1643 80.8552 78.6809 81.854 80.4589C84.251 84.726 93.4823 88.6894 97.7983 90.1377L100.917 85.0006C97.6401 81.84 89.8641 75.4793 84.9724 75.3218Z" fill="#DEC585" stroke="#76563F" stroke-width="0.5" stroke-linecap="round" stroke-linejoin="round"/>
<path d="M78.0905 99.6591C74.1559 103.236 77.1285 104.875 79.1067 105.247C83.8542 106.141 93.7461 101.706 98.0987 99.3773L97.0825 93.7895C92.3912 94.2557 82.025 96.0824 78.0905 99.6591Z" fill="#DEC585" stroke="#76563F" stroke-width="0.5" stroke-linecap="round" stroke-linejoin="round"/>
<path d="M89.0813 120.201C88.4088 125.417 91.8381 124.218 93.6368 122.967C97.9538 119.963 102.712 109.729 104.551 104.987L99.9958 102.222C96.6378 106.042 89.7538 114.986 89.0813 120.201Z" fill="#DEC585" stroke="#76563F" stroke-width="0.5" stroke-linecap="round" stroke-linejoin="round"/>
<path d="M111.507 124.915C114.49 128.715 116.367 125.38 116.933 123.238C118.291 118.097 115.128 108.058 113.376 103.681L107.95 105.358C107.892 110.294 108.523 121.116 111.507 124.915Z" fill="#DEC585" stroke="#76563F" stroke-width="0.5" stroke-linecap="round" stroke-linejoin="round"/>
<path d="M135.349 105.902C137.746 110.169 134.268 111.105 132.23 111.039C127.338 110.882 119.562 104.521 116.286 101.36L119.404 96.2233C123.72 97.6716 132.952 101.635 135.349 105.902Z" fill="#DEC585" stroke="#76563F" stroke-width="0.5" stroke-linecap="round" stroke-linejoin="round"/>
<path d="M138.096 81.114C142.843 82.0075 140.751 85.2115 139.112 86.7019C135.178 90.2786 124.811 92.1053 120.12 92.5715L119.104 86.9836C123.456 84.6548 133.348 80.2205 138.096 81.114Z" fill="#DEC585" stroke="#76563F" stroke-width="0.5" stroke-linecap="round" stroke-linejoin="round"/>
<path d="M123.566 63.3942C127.883 60.3907 128.401 63.9863 128.121 66.1596C127.449 71.3754 120.565 80.3193 117.207 84.1393L112.651 81.374C114.491 76.6322 119.249 66.3977 123.566 63.3942Z" fill="#DEC585" stroke="#76563F" stroke-width="0.5" stroke-linecap="round" stroke-linejoin="round"/>
<path d="M100.269 63.1229C101.627 57.9818 104.453 59.8628 105.696 61.4459C108.679 65.2454 109.31 76.0674 109.252 81.0035L103.826 82.6805C102.075 78.3035 98.9118 68.264 100.269 63.1229Z" fill="#DEC585" stroke="#76563F" stroke-width="0.5" stroke-linecap="round" stroke-linejoin="round"/>
<path d="M78.7922 87.1546C73.8954 88.7156 75.8452 91.4571 77.4322 92.6327C81.241 95.4542 91.7149 95.6466 96.4758 95.3901L97.8358 89.9121C93.5283 88.3426 83.689 85.5937 78.7922 87.1546Z" fill="#E8CD88" stroke="#76563F" stroke-width="0.5" stroke-linecap="round" stroke-linejoin="round"/>
<path d="M80.0398 111.557C77.2566 116.131 80.7022 116.415 82.7728 115.985C87.7424 114.953 96.1496 107.379 99.7321 103.721L96.999 99.2934C92.5056 101.475 82.823 106.983 80.0398 111.557Z" fill="#E8CD88" stroke="#76563F" stroke-width="0.5" stroke-linecap="round" stroke-linejoin="round"/>
<path d="M97.3584 125.829C98.4826 130.695 101.582 128.399 102.991 126.642C106.373 122.427 107.693 111.643 107.93 106.778L102.298 105.965C100.183 110.559 96.2342 120.964 97.3584 125.829Z" fill="#E8CD88" stroke="#76563F" stroke-width="0.5" stroke-linecap="round" stroke-linejoin="round"/>
<path d="M120.865 121.978C125.118 124.184 125.973 120.479 125.87 118.351C125.621 113.243 119.201 105.556 116.022 102.351L111.017 105.978C112.528 110.392 116.612 119.772 120.865 121.978Z" fill="#E8CD88" stroke="#76563F" stroke-width="0.5" stroke-linecap="round" stroke-linejoin="round"/>
<path d="M138.211 96.297C142.02 99.1185 138.892 101.125 136.851 101.775C131.954 103.336 122.115 100.587 117.808 99.0176L119.168 93.5395C123.928 93.2831 134.402 93.4755 138.211 96.297Z" fill="#E8CD88" stroke="#76563F" stroke-width="0.5" stroke-linecap="round" stroke-linejoin="round"/>
<path d="M132.871 72.9446C137.84 71.9127 136.763 75.4667 135.604 77.3726C132.82 81.947 123.138 87.4544 118.644 89.6363L115.911 85.2083C119.494 81.5504 127.901 73.9765 132.871 72.9446Z" fill="#E8CD88" stroke="#76563F" stroke-width="0.5" stroke-linecap="round" stroke-linejoin="round"/>
<path d="M112.652 62.2872C116.034 58.072 117.817 61.0729 118.285 63.1003C119.409 67.966 115.461 78.3708 113.346 82.965L107.713 82.1519C107.95 77.2867 109.27 66.5025 112.652 62.2872Z" fill="#E8CD88" stroke="#76563F" stroke-width="0.5" stroke-linecap="round" stroke-linejoin="round"/>
<path d="M89.7737 70.579C89.5246 65.4709 93.0063 66.0323 94.7783 66.9516C99.031 69.1578 103.115 78.5377 104.626 82.9518L99.6215 86.5793C96.4427 83.3742 90.0228 75.6872 89.7737 70.579Z" fill="#E8CD88" stroke="#76563F" stroke-width="0.5" stroke-linecap="round" stroke-linejoin="round"/>
<path d="M115.412 81.2333C121.56 84.9657 123.17 93.6464 118.921 100.646C114.672 107.646 106.228 110.224 100.079 106.491C93.9309 102.759 92.3214 94.0783 96.5705 87.0786C100.82 80.079 109.263 77.501 115.412 81.2333Z" fill="#76563F" stroke="#76563F" stroke-width="0.5"/>
<path d="M113.264 84.4968C117.759 87.2254 118.946 93.5808 115.829 98.7159C112.712 103.851 106.526 105.731 102.031 103.002C97.536 100.274 96.3494 93.9184 99.4666 88.7834C102.584 83.6483 108.77 81.7683 113.264 84.4968Z" fill="#A78268" stroke="#76563F" stroke-width="0.5"/>
<path d="M127.025 44.061C122.254 45.653 124.254 48.7661 125.85 50.1236C129.682 53.3816 139.991 53.9106 144.667 53.7679L145.842 47.7053C141.557 45.8272 131.795 42.4689 127.025 44.061Z" fill="#DEC585" stroke="#76563F" stroke-width="0.5" stroke-linecap="round" stroke-linejoin="round"/>
<path d="M129.068 69.9698C126.551 74.8196 130 75.3393 132.039 74.9929C136.933 74.1617 144.886 66.3617 148.251 62.5657L145.279 57.5425C140.924 59.6642 131.585 65.12 129.068 69.9698Z" fill="#DEC585" stroke="#76563F" stroke-width="0.5" stroke-linecap="round" stroke-linejoin="round"/>
<path d="M146.983 85.8498C148.195 91.1164 151.072 88.7383 152.36 86.891C155.45 82.4574 156.387 70.8976 156.469 65.6719L151.093 64.6307C149.218 69.5093 145.772 80.5832 146.983 85.8498Z" fill="#DEC585" stroke="#76563F" stroke-width="0.5" stroke-linecap="round" stroke-linejoin="round"/>
<path d="M170.277 82.3985C174.506 84.9968 175.127 81.1141 174.909 78.8479C174.384 73.4091 167.757 64.861 164.509 61.2668L159.877 64.8174C161.581 69.5952 166.047 79.8003 170.277 82.3985Z" fill="#DEC585" stroke="#76563F" stroke-width="0.5" stroke-linecap="round" stroke-linejoin="round"/>
<path d="M186.477 55.5752C190.308 58.8332 187.291 60.9745 185.303 61.6378C180.532 63.2299 170.77 59.8716 166.486 57.9935L167.66 51.9309C172.336 51.7882 182.646 52.3172 186.477 55.5752Z" fill="#DEC585" stroke="#76563F" stroke-width="0.5" stroke-linecap="round" stroke-linejoin="round"/>
<path d="M180.288 30.7058C185.182 29.8746 184.308 33.7083 183.259 35.729C180.742 40.5788 171.403 46.0346 167.048 48.1562L164.077 43.1331C167.441 39.337 175.394 31.5371 180.288 30.7058Z" fill="#DEC585" stroke="#76563F" stroke-width="0.5" stroke-linecap="round" stroke-linejoin="round"/>
<path d="M159.968 18.8078C163.057 14.3742 164.839 17.6546 165.344 19.849C166.555 25.1156 163.109 36.1895 161.234 41.0681L155.858 40.0269C155.94 34.8012 156.878 23.2414 159.968 18.8078Z" fill="#DEC585" stroke="#76563F" stroke-width="0.5" stroke-linecap="round" stroke-linejoin="round"/>
<path d="M137.419 26.851C136.894 21.4122 140.288 22.2177 142.051 23.3004C146.28 25.8986 150.746 36.1037 152.45 40.8815L147.818 44.4321C144.57 40.8379 137.943 32.2898 137.419 26.851Z" fill="#DEC585" stroke="#76563F" stroke-width="0.5" stroke-linecap="round" stroke-linejoin="round"/>
<path d="M125.287 57.6682C121.124 60.9182 123.98 62.8653 125.929 63.4326C130.605 64.7941 140.768 61.2458 145.265 59.3015L144.623 53.5371C139.912 53.56 129.449 54.4182 125.287 57.6682Z" fill="#E8CD88" stroke="#76563F" stroke-width="0.5" stroke-linecap="round" stroke-linejoin="round"/>
<path d="M135.188 80.7418C134.136 86.1425 137.558 85.1876 139.4 84.0351C143.822 81.269 149.225 70.9725 151.373 66.1701L147.161 62.8768C143.608 66.5815 136.24 75.341 135.188 80.7418Z" fill="#E8CD88" stroke="#76563F" stroke-width="0.5" stroke-linecap="round" stroke-linejoin="round"/>
<path d="M156.967 88.3232C159.785 92.6119 161.953 89.2939 162.685 87.0988C164.442 81.8307 161.87 70.9667 160.364 66.1932L154.646 67.4176C154.245 72.5992 154.149 84.0345 156.967 88.3232Z" fill="#E8CD88" stroke="#76563F" stroke-width="0.5" stroke-linecap="round" stroke-linejoin="round"/>
<path d="M178.249 76.232C183.134 76.8423 182.638 72.9663 181.779 70.952C179.718 66.1177 170.79 60.9977 166.584 59.042L163.054 64.322C166.084 68.0377 173.364 75.6217 178.249 76.232Z" fill="#E8CD88" stroke="#76563F" stroke-width="0.5" stroke-linecap="round" stroke-linejoin="round"/>
<path d="M185.812 45.2977C190.488 46.6592 188.188 49.7079 186.454 51.0621C182.291 54.3121 171.828 55.1702 167.117 55.1931L166.475 49.4288C170.972 47.4844 181.135 43.9362 185.812 45.2977Z" fill="#E8CD88" stroke="#76563F" stroke-width="0.5" stroke-linecap="round" stroke-linejoin="round"/>
<path d="M172.34 24.6952C176.762 21.9291 176.991 25.7382 176.552 27.9885C175.501 33.3892 168.132 42.1488 164.579 45.8535L160.367 42.5602C162.516 37.7577 167.918 27.4613 172.34 24.6952Z" fill="#E8CD88" stroke="#76563F" stroke-width="0.5" stroke-linecap="round" stroke-linejoin="round"/>
<path d="M149.055 21.6314C150.812 16.3632 153.599 18.6201 154.774 20.407C157.592 24.6957 157.495 36.1311 157.095 41.3127L151.376 42.5371C149.87 37.7636 147.298 26.8996 149.055 21.6314Z" fill="#E8CD88" stroke="#76563F" stroke-width="0.5" stroke-linecap="round" stroke-linejoin="round"/>
<path d="M129.961 37.7785C127.9 32.9442 131.456 32.2442 133.491 32.4984C138.377 33.1087 145.657 40.6927 148.686 44.4084L145.156 49.6885C140.95 47.7327 132.022 42.6128 129.961 37.7785Z" fill="#E8CD88" stroke="#76563F" stroke-width="0.5" stroke-linecap="round" stroke-linejoin="round"/>
<path d="M158.47 38.9005C165.731 40.3067 170.378 48.1034 168.777 56.3671C167.177 64.6308 159.955 70.1288 152.694 68.7226C145.434 67.3164 140.786 59.5197 142.387 51.256C143.987 42.9923 151.209 37.4943 158.47 38.9005Z" fill="#76563F" stroke="#76563F" stroke-width="0.5"/>
<path d="M157.564 42.8112C162.873 43.8395 166.284 49.5459 165.109 55.609C163.935 61.6722 158.641 65.6926 153.331 64.6644C148.022 63.6362 144.611 57.9297 145.786 51.8666C146.96 45.8034 152.255 41.783 157.564 42.8112Z" fill="#A78268" stroke="#76563F" stroke-width="0.5"/>
<path d="M27.558 44.8386C22.5488 45.8467 24.1758 49.2357 25.6155 50.8042C29.0707 54.5685 39.3992 56.392 44.1315 56.8332L46.0739 50.8676C41.9891 48.4378 32.5672 43.8304 27.558 44.8386Z" fill="#DEC585" stroke="#76563F" stroke-width="0.5" stroke-linecap="round" stroke-linejoin="round"/>
<path d="M26.3759 71.2165C23.2314 75.7913 26.6439 76.7469 28.7432 76.6529C33.7815 76.4272 42.7759 69.5582 46.6433 66.1519L44.2761 60.7155C39.6196 62.3097 29.5205 66.6417 26.3759 71.2165Z" fill="#DEC585" stroke="#76563F" stroke-width="0.5" stroke-linecap="round" stroke-linejoin="round"/>
<path d="M42.452 89.4693C43.0141 94.9308 46.213 92.8933 47.7422 91.1919C51.4123 87.1084 53.8039 75.5706 54.5409 70.3122L49.2507 68.5896C46.7502 73.2738 41.8899 84.0077 42.452 89.4693Z" fill="#DEC585" stroke="#76563F" stroke-width="0.5" stroke-linecap="round" stroke-linejoin="round"/>
<path d="M66.369 88.9044C70.3086 92.0534 71.4201 88.2163 71.4834 85.9042C71.6353 80.3549 66.0231 70.9071 63.198 66.8768L58.0837 69.8771C59.204 74.9075 62.4295 85.7554 66.369 88.9044Z" fill="#DEC585" stroke="#76563F" stroke-width="0.5" stroke-linecap="round" stroke-linejoin="round"/>
<path d="M86.0593 63.8874C89.5146 67.6517 86.204 69.4329 84.1168 69.853C79.1076 70.8611 69.6857 66.2537 65.6009 63.8239L67.5434 57.8583C72.2757 58.2995 82.6041 60.123 86.0593 63.8874Z" fill="#DEC585" stroke="#76563F" stroke-width="0.5" stroke-linecap="round" stroke-linejoin="round"/>
<path d="M82.9316 38.0386C87.97 37.8129 86.6091 41.5688 85.2989 43.475C82.1543 48.0498 72.0552 52.3818 67.3987 53.976L65.0315 48.5396C68.8989 45.1333 77.8933 38.2643 82.9316 38.0386Z" fill="#DEC585" stroke="#76563F" stroke-width="0.5" stroke-linecap="round" stroke-linejoin="round"/>
<path d="M63.9326 23.4997C67.6027 19.4162 68.9886 22.9466 69.2228 25.2223C69.7849 30.6838 64.9245 41.4177 62.4241 46.1019L57.1339 44.3794C57.8709 39.1209 60.2625 27.5831 63.9326 23.4997Z" fill="#DEC585" stroke="#76563F" stroke-width="0.5" stroke-linecap="round" stroke-linejoin="round"/>
<path d="M40.1914 28.7875C40.3433 23.2383 43.6642 24.4751 45.3057 25.7872C49.2452 28.9362 52.4707 39.7842 53.591 44.8146L48.4767 47.8148C45.6516 43.7845 40.0394 34.3367 40.1914 28.7875Z" fill="#DEC585" stroke="#76563F" stroke-width="0.5" stroke-linecap="round" stroke-linejoin="round"/>
<path d="M24.1028 58.3404C19.4989 61.0962 22.1352 63.4168 24.0288 64.2326C28.5736 66.1905 39.2644 63.8848 44.0417 62.4872L44.1157 56.595C39.363 56.0285 28.7068 55.5845 24.1028 58.3404Z" fill="#E8CD88" stroke="#76563F" stroke-width="0.5" stroke-linecap="round" stroke-linejoin="round"/>
<path d="M31.1984 82.8431C29.4622 88.1568 33.0318 87.6222 35.0335 86.6907C39.8378 84.4551 46.5734 74.7499 49.3407 70.1768L45.5056 66.3292C41.46 69.6198 32.9346 77.5295 31.1984 82.8431Z" fill="#E8CD88" stroke="#76563F" stroke-width="0.5" stroke-linecap="round" stroke-linejoin="round"/>
<path d="M52.208 93.2124C54.5126 97.889 57.1142 94.8151 58.127 92.6935C60.5576 87.6018 59.3235 76.3264 58.4027 71.3251L52.4838 71.844C51.4317 77.0182 49.9035 88.5357 52.208 93.2124Z" fill="#E8CD88" stroke="#76563F" stroke-width="0.5" stroke-linecap="round" stroke-linejoin="round"/>
<path d="M75.1785 83.6847C80.0275 84.9113 80.0122 80.9413 79.3984 78.8029C77.9254 73.6709 69.565 67.3916 65.5689 64.8934L61.349 69.7752C63.9384 73.9006 70.3295 82.4581 75.1785 83.6847Z" fill="#E8CD88" stroke="#76563F" stroke-width="0.5" stroke-linecap="round" stroke-linejoin="round"/>
<path d="M86.6747 53.4419C91.2195 55.3998 88.519 58.1858 86.6007 59.3341C81.9967 62.0899 71.3405 61.6459 66.5879 61.0795L66.6618 55.1873C71.4391 53.7897 82.1299 51.4839 86.6747 53.4419Z" fill="#E8CD88" stroke="#76563F" stroke-width="0.5" stroke-linecap="round" stroke-linejoin="round"/>
<path d="M75.67 30.9838C80.4743 28.7483 80.2286 32.6174 79.5052 34.8314C77.769 40.1451 69.2436 48.0547 65.1979 51.3453L61.3628 47.4977C64.1301 42.9246 70.8658 33.2194 75.67 30.9838Z" fill="#E8CD88" stroke="#76563F" stroke-width="0.5" stroke-linecap="round" stroke-linejoin="round"/>
<path d="M52.5765 24.981C55.0071 19.8892 57.5352 22.5135 58.4955 24.4621C60.8 29.1388 59.2718 40.6563 58.2197 45.8305L52.3007 46.3494C51.3799 41.3481 50.1459 30.0727 52.5765 24.981Z" fill="#E8CD88" stroke="#76563F" stroke-width="0.5" stroke-linecap="round" stroke-linejoin="round"/>
<path d="M31.305 38.8718C29.832 33.7397 33.5045 33.4789 35.525 33.99C40.374 35.2166 46.765 43.7741 49.3544 47.8995L45.1345 52.7813C41.1385 50.2831 32.7781 44.0038 31.305 38.8718Z" fill="#E8CD88" stroke="#76563F" stroke-width="0.5" stroke-linecap="round" stroke-linejoin="round"/>
<path d="M59.9094 43.5667C67.0564 45.8939 70.7668 54.3389 68.1185 62.4721C65.4703 70.6053 57.4988 75.2466 50.3518 72.9194C43.2048 70.5922 39.4944 62.1472 42.1426 54.014C44.7909 45.8808 52.7624 41.2396 59.9094 43.5667Z" fill="#76563F" stroke="#76563F" stroke-width="0.5"/>
<path d="M58.5063 47.3963C63.7331 49.0982 66.4584 55.281 64.5152 61.2488C62.572 67.2166 56.7288 70.6094 51.502 68.9075C46.2752 67.2056 43.5499 61.0228 45.4931 55.055C47.4363 49.0872 53.2795 45.6944 58.5063 47.3963Z" fill="#A78268" stroke="#76563F" stroke-width="0.5"/>
</svg>
