<svg width="205" height="148" viewBox="0 0 205 148" fill="none" xmlns="http://www.w3.org/2000/svg" class="three-flowers">
<path d="M83.9724 75.4658C79.0806 75.3083 79.8552 78.8249 80.854 80.6029C83.251 84.87 92.4823 88.8334 96.7983 90.2817L99.9167 85.1446C96.6401 81.984 88.8641 75.6233 83.9724 75.4658Z" fill="#DEC585" stroke="#76563F" stroke-width="0.5" stroke-linecap="round" stroke-linejoin="round"/>
<path d="M77.0905 99.8031C73.1559 103.38 76.1285 105.019 78.1067 105.391C82.8542 106.285 92.7461 101.85 97.0987 99.5213L96.0825 93.9335C91.3912 94.3997 81.025 96.2263 77.0905 99.8031Z" fill="#DEC585" stroke="#76563F" stroke-width="0.5" stroke-linecap="round" stroke-linejoin="round"/>
<path d="M88.0813 120.345C87.4088 125.561 90.8381 124.362 92.6368 123.111C96.9538 120.107 101.712 109.873 103.551 105.131L98.9958 102.366C95.6378 106.186 88.7538 115.13 88.0813 120.345Z" fill="#DEC585" stroke="#76563F" stroke-width="0.5" stroke-linecap="round" stroke-linejoin="round"/>
<path d="M110.507 125.059C113.49 128.859 115.367 125.524 115.933 123.382C117.291 118.241 114.128 108.202 112.376 103.825L106.95 105.502C106.892 110.438 107.523 121.26 110.507 125.059Z" fill="#DEC585" stroke="#76563F" stroke-width="0.5" stroke-linecap="round" stroke-linejoin="round"/>
<path d="M134.349 106.046C136.746 110.313 133.268 111.249 131.23 111.183C126.338 111.026 118.562 104.665 115.286 101.504L118.404 96.3673C122.72 97.8156 131.952 101.779 134.349 106.046Z" fill="#DEC585" stroke="#76563F" stroke-width="0.5" stroke-linecap="round" stroke-linejoin="round"/>
<path d="M137.096 81.2579C141.843 82.1515 139.751 85.3555 138.112 86.8458C134.178 90.4226 123.811 92.2492 119.12 92.7155L118.104 87.1276C122.456 84.7988 132.348 80.3644 137.096 81.2579Z" fill="#DEC585" stroke="#76563F" stroke-width="0.5" stroke-linecap="round" stroke-linejoin="round"/>
<path d="M122.566 63.5381C126.883 60.5346 127.401 64.1303 127.121 66.3035C126.449 71.5193 119.565 80.4633 116.207 84.2833L111.651 81.5179C113.491 76.7761 118.249 66.5416 122.566 63.5381Z" fill="#DEC585" stroke="#76563F" stroke-width="0.5" stroke-linecap="round" stroke-linejoin="round"/>
<path d="M99.2693 63.2669C100.627 58.1258 103.453 60.0067 104.696 61.5899C107.679 65.3894 108.31 76.2114 108.252 81.1475L102.826 82.8245C101.075 78.4474 97.9118 68.408 99.2693 63.2669Z" fill="#DEC585" stroke="#76563F" stroke-width="0.5" stroke-linecap="round" stroke-linejoin="round"/>
<path d="M77.7922 87.2986C72.8954 88.8595 74.8452 91.601 76.4322 92.7766C80.241 95.5981 90.7149 95.7905 95.4758 95.5341L96.8358 90.0561C92.5283 88.4865 82.689 85.7377 77.7922 87.2986Z" fill="#E8CD88" stroke="#76563F" stroke-width="0.5" stroke-linecap="round" stroke-linejoin="round"/>
<path d="M79.0398 111.701C76.2566 116.275 79.7022 116.559 81.7728 116.129C86.7424 115.097 95.1496 107.523 98.7321 103.865L95.999 99.4373C91.5056 101.619 81.823 107.127 79.0398 111.701Z" fill="#E8CD88" stroke="#76563F" stroke-width="0.5" stroke-linecap="round" stroke-linejoin="round"/>
<path d="M96.3584 125.973C97.4826 130.839 100.582 128.543 101.991 126.786C105.373 122.571 106.693 111.787 106.93 106.922L101.298 106.109C99.1827 110.703 95.2342 121.108 96.3584 125.973Z" fill="#E8CD88" stroke="#76563F" stroke-width="0.5" stroke-linecap="round" stroke-linejoin="round"/>
<path d="M119.865 122.122C124.118 124.328 124.973 120.623 124.87 118.495C124.621 113.387 118.201 105.7 115.022 102.495L110.017 106.122C111.528 110.536 115.612 119.916 119.865 122.122Z" fill="#E8CD88" stroke="#76563F" stroke-width="0.5" stroke-linecap="round" stroke-linejoin="round"/>
<path d="M137.211 96.441C141.02 99.2625 137.892 101.269 135.851 101.919C130.954 103.48 121.115 100.731 116.808 99.1615L118.168 93.6835C122.928 93.427 133.402 93.6195 137.211 96.441Z" fill="#E8CD88" stroke="#76563F" stroke-width="0.5" stroke-linecap="round" stroke-linejoin="round"/>
<path d="M131.871 73.0886C136.84 72.0567 135.763 75.6106 134.604 77.5166C131.82 82.0909 122.138 87.5983 117.644 89.7803L114.911 85.3523C118.494 81.6943 126.901 74.1205 131.871 73.0886Z" fill="#E8CD88" stroke="#76563F" stroke-width="0.5" stroke-linecap="round" stroke-linejoin="round"/>
<path d="M111.652 62.4312C115.034 58.2159 116.817 61.2169 117.285 63.2442C118.409 68.11 114.461 78.5148 112.346 83.1089L106.713 82.2959C106.95 77.4307 108.27 66.6464 111.652 62.4312Z" fill="#E8CD88" stroke="#76563F" stroke-width="0.5" stroke-linecap="round" stroke-linejoin="round"/>
<path d="M88.7737 70.723C88.5246 65.6148 92.0063 66.1763 93.7783 67.0955C98.031 69.3018 102.115 78.6816 103.626 83.0958L98.6215 86.7232C95.4427 83.5182 89.0228 75.8311 88.7737 70.723Z" fill="#E8CD88" stroke="#76563F" stroke-width="0.5" stroke-linecap="round" stroke-linejoin="round"/>
<path d="M114.412 81.3773C120.56 85.1096 122.17 93.7903 117.921 100.79C113.672 107.79 105.228 110.368 99.0793 106.635C92.9309 102.903 91.3214 94.2222 95.5705 87.2226C99.8196 80.2229 108.263 77.645 114.412 81.3773Z" fill="#76563F" stroke="#76563F" stroke-width="0.5"/>
<path d="M112.264 84.6408C116.759 87.3694 117.946 93.7248 114.829 98.8598C111.712 103.995 105.526 105.875 101.031 103.146C96.536 100.418 95.3494 94.0623 98.4666 88.9273C101.584 83.7923 107.77 81.9122 112.264 84.6408Z" fill="#A78268" stroke="#76563F" stroke-width="0.5"/>
<path d="M126.025 44.2049C121.254 45.797 123.254 48.91 124.85 50.2675C128.682 53.5256 138.991 54.0546 143.667 53.9118L144.842 47.8493C140.557 45.9711 130.795 42.6129 126.025 44.2049Z" fill="#DEC585" stroke="#76563F" stroke-width="0.5" stroke-linecap="round" stroke-linejoin="round"/>
<path d="M128.068 70.1138C125.551 74.9635 129 75.4833 131.039 75.1369C135.933 74.3057 143.886 66.5057 147.251 62.7096L144.279 57.6865C139.924 59.8082 130.585 65.264 128.068 70.1138Z" fill="#DEC585" stroke="#76563F" stroke-width="0.5" stroke-linecap="round" stroke-linejoin="round"/>
<path d="M145.983 85.9938C147.195 91.2603 150.072 88.8823 151.36 87.035C154.45 82.6014 155.387 71.0416 155.469 65.8159L150.093 64.7746C148.218 69.6533 144.772 80.7272 145.983 85.9938Z" fill="#DEC585" stroke="#76563F" stroke-width="0.5" stroke-linecap="round" stroke-linejoin="round"/>
<path d="M169.277 82.5425C173.506 85.1408 174.127 81.258 173.909 78.9919C173.384 73.5531 166.757 65.005 163.509 61.4108L158.877 64.9614C160.581 69.7392 165.047 79.9442 169.277 82.5425Z" fill="#DEC585" stroke="#76563F" stroke-width="0.5" stroke-linecap="round" stroke-linejoin="round"/>
<path d="M185.477 55.7192C189.308 58.9772 186.291 61.1184 184.303 61.7818C179.532 63.3738 169.77 60.0156 165.486 58.1374L166.66 52.0749C171.336 51.9321 181.646 52.4612 185.477 55.7192Z" fill="#DEC585" stroke="#76563F" stroke-width="0.5" stroke-linecap="round" stroke-linejoin="round"/>
<path d="M179.288 30.8498C184.182 30.0186 183.308 33.8522 182.259 35.873C179.742 40.7228 170.403 46.1785 166.048 48.3002L163.077 43.2771C166.441 39.481 174.394 31.6811 179.288 30.8498Z" fill="#DEC585" stroke="#76563F" stroke-width="0.5" stroke-linecap="round" stroke-linejoin="round"/>
<path d="M158.968 18.9518C162.057 14.5182 163.839 17.7986 164.344 19.993C165.555 25.2596 162.109 36.3335 160.234 41.2121L154.858 40.1709C154.94 34.9452 155.878 23.3853 158.968 18.9518Z" fill="#DEC585" stroke="#76563F" stroke-width="0.5" stroke-linecap="round" stroke-linejoin="round"/>
<path d="M136.419 26.995C135.894 21.5562 139.288 22.3617 141.051 23.4443C145.28 26.0426 149.746 36.2477 151.45 41.0254L146.818 44.5761C143.57 40.9819 136.943 32.4338 136.419 26.995Z" fill="#DEC585" stroke="#76563F" stroke-width="0.5" stroke-linecap="round" stroke-linejoin="round"/>
<path d="M124.287 57.8122C120.124 61.0622 122.98 63.0093 124.929 63.5766C129.605 64.9381 139.768 61.3898 144.265 59.4454L143.623 53.6811C138.912 53.704 128.449 54.5622 124.287 57.8122Z" fill="#E8CD88" stroke="#76563F" stroke-width="0.5" stroke-linecap="round" stroke-linejoin="round"/>
<path d="M134.188 80.8858C133.136 86.2865 136.558 85.3316 138.4 84.1791C142.822 81.413 148.225 71.1165 150.373 66.3141L146.161 63.0208C142.608 66.7255 135.24 75.485 134.188 80.8858Z" fill="#E8CD88" stroke="#76563F" stroke-width="0.5" stroke-linecap="round" stroke-linejoin="round"/>
<path d="M155.967 88.4672C158.785 92.7559 160.953 89.4379 161.685 87.2428C163.442 81.9746 160.87 71.1106 159.364 66.3372L153.646 67.5615C153.245 72.7431 153.149 84.1785 155.967 88.4672Z" fill="#E8CD88" stroke="#76563F" stroke-width="0.5" stroke-linecap="round" stroke-linejoin="round"/>
<path d="M177.249 76.376C182.134 76.9863 181.638 73.1102 180.779 71.096C178.718 66.2617 169.79 61.1417 165.584 59.186L162.054 64.466C165.084 68.1817 172.364 75.7657 177.249 76.376Z" fill="#E8CD88" stroke="#76563F" stroke-width="0.5" stroke-linecap="round" stroke-linejoin="round"/>
<path d="M184.812 45.4417C189.488 46.8032 187.188 49.8519 185.454 51.206C181.291 54.456 170.828 55.3142 166.117 55.3371L165.475 49.5727C169.972 47.6284 180.135 44.0802 184.812 45.4417Z" fill="#E8CD88" stroke="#76563F" stroke-width="0.5" stroke-linecap="round" stroke-linejoin="round"/>
<path d="M171.34 24.8392C175.762 22.0731 175.991 25.8822 175.552 28.1325C174.501 33.5332 167.132 42.2928 163.579 45.9974L159.367 42.7042C161.516 37.9017 166.918 27.6053 171.34 24.8392Z" fill="#E8CD88" stroke="#76563F" stroke-width="0.5" stroke-linecap="round" stroke-linejoin="round"/>
<path d="M148.055 21.7754C149.812 16.5072 152.599 18.764 153.774 20.551C156.592 24.8397 156.495 36.2751 156.095 41.4567L150.376 42.6811C148.87 37.9076 146.298 27.0436 148.055 21.7754Z" fill="#E8CD88" stroke="#76563F" stroke-width="0.5" stroke-linecap="round" stroke-linejoin="round"/>
<path d="M128.961 37.9224C126.9 33.0882 130.456 32.3881 132.491 32.6424C137.377 33.2527 144.657 40.8367 147.686 44.5524L144.156 49.8324C139.95 47.8767 131.022 42.7567 128.961 37.9224Z" fill="#E8CD88" stroke="#76563F" stroke-width="0.5" stroke-linecap="round" stroke-linejoin="round"/>
<path d="M157.47 39.0445C164.731 40.4507 169.378 48.2474 167.777 56.5111C166.177 64.7748 158.955 70.2728 151.694 68.8666C144.434 67.4604 139.786 59.6637 141.387 51.4C142.987 43.1363 150.209 37.6383 157.47 39.0445Z" fill="#76563F" stroke="#76563F" stroke-width="0.5"/>
<path d="M156.564 42.9552C161.873 43.9834 165.284 49.6899 164.109 55.753C162.935 61.8161 157.641 65.8366 152.331 64.8084C147.022 63.7801 143.611 58.0737 144.786 52.0106C145.96 45.9474 151.255 41.9269 156.564 42.9552Z" fill="#A78268" stroke="#76563F" stroke-width="0.5"/>
<path d="M26.558 44.9825C21.5488 45.9907 23.1758 49.3797 24.6155 50.9482C28.0707 54.7125 38.3992 56.536 43.1315 56.9772L45.0739 51.0116C40.9891 48.5818 31.5672 43.9744 26.558 44.9825Z" fill="#DEC585" stroke="#76563F" stroke-width="0.5" stroke-linecap="round" stroke-linejoin="round"/>
<path d="M25.3759 71.3605C22.2314 75.9353 25.6439 76.8909 27.7432 76.7969C32.7815 76.5712 41.7759 69.7021 45.6433 66.2958L43.2761 60.8595C38.6196 62.4537 28.5205 66.7857 25.3759 71.3605Z" fill="#DEC585" stroke="#76563F" stroke-width="0.5" stroke-linecap="round" stroke-linejoin="round"/>
<path d="M41.452 89.6132C42.0141 95.0748 45.213 93.0373 46.7422 91.3358C50.4123 87.2524 52.8039 75.7146 53.5409 70.4561L48.2507 68.7336C45.7502 73.4178 40.8899 84.1517 41.452 89.6132Z" fill="#DEC585" stroke="#76563F" stroke-width="0.5" stroke-linecap="round" stroke-linejoin="round"/>
<path d="M65.369 89.0484C69.3086 92.1974 70.4201 88.3603 70.4834 86.0481C70.6353 80.4989 65.0231 71.0511 62.198 67.0208L57.0837 70.0211C58.204 75.0515 61.4295 85.8994 65.369 89.0484Z" fill="#DEC585" stroke="#76563F" stroke-width="0.5" stroke-linecap="round" stroke-linejoin="round"/>
<path d="M85.0593 64.0313C88.5146 67.7956 85.204 69.5769 83.1168 69.9969C78.1076 71.0051 68.6857 66.3976 64.6009 63.9679L66.5434 58.0023C71.2757 58.4435 81.6041 60.267 85.0593 64.0313Z" fill="#DEC585" stroke="#76563F" stroke-width="0.5" stroke-linecap="round" stroke-linejoin="round"/>
<path d="M81.9316 38.1826C86.97 37.9569 85.6091 41.7128 84.2989 43.619C81.1543 48.1937 71.0552 52.5258 66.3987 54.1199L64.0315 48.6836C67.8989 45.2773 76.8933 38.4083 81.9316 38.1826Z" fill="#DEC585" stroke="#76563F" stroke-width="0.5" stroke-linecap="round" stroke-linejoin="round"/>
<path d="M62.9326 23.6436C66.6027 19.5602 67.9886 23.0906 68.2228 25.3662C68.7849 30.8278 63.9245 41.5616 61.4241 46.2459L56.1339 44.5233C56.8709 39.2649 59.2625 27.7271 62.9326 23.6436Z" fill="#DEC585" stroke="#76563F" stroke-width="0.5" stroke-linecap="round" stroke-linejoin="round"/>
<path d="M39.1914 28.9314C39.3434 23.3822 42.6643 24.6191 44.3058 25.9312C48.2453 29.0802 51.4708 39.9281 52.5911 44.9585L47.4768 47.9588C44.6517 43.9285 39.0395 34.4807 39.1914 28.9314Z" fill="#DEC585" stroke="#76563F" stroke-width="0.5" stroke-linecap="round" stroke-linejoin="round"/>
<path d="M23.1028 58.4843C18.4989 61.2402 21.1352 63.5608 23.0288 64.3766C27.5736 66.3345 38.2644 64.0287 43.0417 62.6311L43.1157 56.7389C38.363 56.1725 27.7068 55.7285 23.1028 58.4843Z" fill="#E8CD88" stroke="#76563F" stroke-width="0.5" stroke-linecap="round" stroke-linejoin="round"/>
<path d="M30.1984 82.9871C28.4622 88.3007 32.0318 87.7661 34.0335 86.8347C38.8378 84.5991 45.5734 74.8939 48.3407 70.3207L44.5056 66.4731C40.46 69.7638 31.9346 77.6734 30.1984 82.9871Z" fill="#E8CD88" stroke="#76563F" stroke-width="0.5" stroke-linecap="round" stroke-linejoin="round"/>
<path d="M51.208 93.3563C53.5126 98.033 56.1142 94.959 57.127 92.8375C59.5576 87.7457 58.3235 76.4703 57.4027 71.4691L51.4838 71.9879C50.4317 77.1621 48.9035 88.6797 51.208 93.3563Z" fill="#E8CD88" stroke="#76563F" stroke-width="0.5" stroke-linecap="round" stroke-linejoin="round"/>
<path d="M74.1785 83.8286C79.0275 85.0553 79.0122 81.0852 78.3984 78.9469C76.9254 73.8148 68.565 67.5355 64.5689 65.0374L60.349 69.9191C62.9384 74.0445 69.3295 82.602 74.1785 83.8286Z" fill="#E8CD88" stroke="#76563F" stroke-width="0.5" stroke-linecap="round" stroke-linejoin="round"/>
<path d="M85.6747 53.5858C90.2195 55.5438 87.519 58.3298 85.6007 59.4781C80.9967 62.2339 70.3405 61.7899 65.5879 61.2234L65.6618 55.3312C70.4391 53.9336 81.1299 51.6279 85.6747 53.5858Z" fill="#E8CD88" stroke="#76563F" stroke-width="0.5" stroke-linecap="round" stroke-linejoin="round"/>
<path d="M74.67 31.1278C79.4743 28.8922 79.2286 32.7613 78.5052 34.9754C76.769 40.289 68.2436 48.1986 64.1979 51.4893L60.3628 47.6417C63.1301 43.0685 69.8658 33.3634 74.67 31.1278Z" fill="#E8CD88" stroke="#76563F" stroke-width="0.5" stroke-linecap="round" stroke-linejoin="round"/>
<path d="M51.5765 25.1249C54.0071 20.0332 56.5352 22.6574 57.4955 24.606C59.8 29.2827 58.2718 40.8003 57.2197 45.9745L51.3007 46.4933C50.3799 41.4921 49.1459 30.2167 51.5765 25.1249Z" fill="#E8CD88" stroke="#76563F" stroke-width="0.5" stroke-linecap="round" stroke-linejoin="round"/>
<path d="M30.305 39.0157C28.832 33.8837 32.5045 33.6228 34.525 34.1339C39.374 35.3605 45.765 43.9181 48.3544 48.0435L44.1345 52.9253C40.1385 50.4271 31.7781 44.1478 30.305 39.0157Z" fill="#E8CD88" stroke="#76563F" stroke-width="0.5" stroke-linecap="round" stroke-linejoin="round"/>
<path d="M58.9094 43.7107C66.0564 46.0378 69.7668 54.4829 67.1185 62.616C64.4703 70.7492 56.4988 75.3905 49.3518 73.0633C42.2048 70.7362 38.4944 62.2911 41.1426 54.1579C43.7909 46.0248 51.7624 41.3835 58.9094 43.7107Z" fill="#76563F" stroke="#76563F" stroke-width="0.5"/>
<path d="M57.5063 47.5402C62.7331 49.2421 65.4584 55.425 63.5152 61.3928C61.572 67.3606 55.7288 70.7533 50.502 69.0514C45.2752 67.3495 42.5499 61.1667 44.4931 55.1989C46.4363 49.2311 52.2795 45.8383 57.5063 47.5402Z" fill="#A78268" stroke="#76563F" stroke-width="0.5"/>
</svg>
