<svg width="223" height="167" viewBox="0 0 223 167" fill="none" xmlns="http://www.w3.org/2000/svg"
class="three-flower">
<path d="M21.1571 35.7865C16.669 55.5352 17.4952 63.9961 22.7752 75.8414C27.9393 87.4269 38.2526 91.1248 44.2466 91.5649C59.0553 89.8904 63.8027 80.1973 67.2476 70.9973C68.953 66.3524 71.9964 53.104 70.5267 37.27C68.4483 37.959 65.0809 39.2017 62.6615 40.5422C61.8865 37.5359 59.0071 34.8125 57.6643 33.8266C54.3746 34.5783 51.9904 37.2508 51.2095 38.4931C48.8118 34.8175 45.6687 31.9675 43.7739 30.6181C41.4615 31.8832 39.409 34.1783 37.7183 36.6867C36.5392 35.8923 32.4502 34.0569 30.0573 33.7526C29.372 34.2639 27.6009 36.0161 25.9997 38.9351C24.161 37.5183 22.4832 36.4658 21.1571 35.7865Z" fill="#C1495E"/>
<path d="M44.2466 91.5649C59.0553 89.8904 63.8027 80.1973 67.2476 70.9973C68.953 66.3524 71.9964 53.104 70.5267 37.27C68.4483 37.959 65.0809 39.2017 62.6615 40.5422M44.2466 91.5649C38.2526 91.1248 27.9393 87.4269 22.7752 75.8414C17.4952 63.9961 16.669 55.5352 21.1571 35.7865C22.4832 36.4658 24.161 37.5183 25.9997 38.9351M44.2466 91.5649C40.7145 81.0929 40.672 72.2456 42.6757 64.9108M42.6757 64.9108C41.0127 57.0362 37.2526 50.6416 33.1654 45.808M42.6757 64.9108C44.8211 57.0572 49.3125 50.9376 54.3781 46.4144M33.1654 45.808C33.9085 43.627 35.5027 39.9738 37.7183 36.6867M33.1654 45.808C30.7705 42.9757 28.2632 40.6793 25.9997 38.9351M37.7183 36.6867C39.409 34.1783 41.4615 31.8832 43.7739 30.6181C45.6687 31.9675 48.8118 34.8175 51.2095 38.4931M37.7183 36.6867C36.5392 35.8923 32.4502 34.0569 30.0573 33.7526C29.372 34.2639 27.6009 36.0161 25.9997 38.9351M54.3781 46.4144C53.9808 43.5528 52.7487 40.8528 51.2095 38.4931M54.3781 46.4144C57.0658 44.0145 59.9152 42.0639 62.6615 40.5422M51.2095 38.4931C51.9904 37.2508 54.3746 34.5783 57.6643 33.8266C59.0071 34.8125 61.8865 37.5359 62.6615 40.5422" stroke="#3B4B38" stroke-width="0.1" stroke-linecap="round" stroke-linejoin="round"/>
<path fill-rule="evenodd" clip-rule="evenodd" d="M22.7752 75.8414C17.4952 63.9961 16.669 55.5352 21.1571 35.7865C22.4832 36.4658 24.161 37.5183 25.9997 38.9351C28.2632 40.6793 30.7705 42.9757 33.1654 45.808C37.2526 50.6416 41.0127 57.0362 42.6757 64.9108C44.8211 57.0572 49.3125 50.9376 54.3781 46.4144C57.0658 44.0145 59.9152 42.0639 62.6615 40.5422C65.0809 39.2017 68.4483 37.959 70.5267 37.27C71.9964 53.104 68.953 66.3524 67.2476 70.9973C63.8027 80.1973 59.0553 89.8904 44.2466 91.5649C38.2526 91.1248 27.9393 87.4269 22.7752 75.8414Z" fill="#DC536C"/>
<path d="M44.2466 91.5649C59.0553 89.8904 63.8027 80.1973 67.2476 70.9973C68.953 66.3524 71.9964 53.104 70.5267 37.27C68.4483 37.959 65.0809 39.2017 62.6615 40.5422M44.2466 91.5649C38.2526 91.1248 27.9393 87.4269 22.7752 75.8414C17.4952 63.9961 16.669 55.5352 21.1571 35.7865C22.4832 36.4658 24.161 37.5183 25.9997 38.9351M44.2466 91.5649C40.7145 81.0929 40.672 72.2456 42.6757 64.9108M42.6757 64.9108C41.0127 57.0362 37.2526 50.6416 33.1654 45.808M42.6757 64.9108C44.8211 57.0572 49.3125 50.9376 54.3781 46.4144M33.1654 45.808C33.9085 43.627 35.5027 39.9738 37.7183 36.6867M33.1654 45.808C30.7705 42.9757 28.2632 40.6793 25.9997 38.9351M37.7183 36.6867C39.409 34.1783 41.4615 31.8832 43.7739 30.6181C45.6687 31.9675 48.8118 34.8175 51.2095 38.4931M37.7183 36.6867C36.5392 35.8923 32.4502 34.0569 30.0573 33.7526C29.372 34.2639 27.6009 36.0161 25.9997 38.9351M54.3781 46.4144C53.9808 43.5528 52.7487 40.8528 51.2095 38.4931M54.3781 46.4144C57.0658 44.0145 59.9152 42.0639 62.6615 40.5422M51.2095 38.4931C51.9904 37.2508 54.3746 34.5783 57.6643 33.8266C59.0071 34.8125 61.8865 37.5359 62.6615 40.5422" stroke="#3B4B38" stroke-width="0.5" stroke-linecap="round" stroke-linejoin="round"/>
<path d="M149.975 90.7333C150.75 112.748 148.118 121.583 139.987 133.058C132.034 144.281 120.152 145.983 113.598 145.151C97.9736 140.153 94.849 128.795 93.0276 118.246C92.1444 112.927 91.589 98.1511 96.4323 81.6C98.5318 82.7851 101.907 84.8399 104.24 86.7931C105.695 83.7583 109.36 81.4816 111.011 80.7225C114.404 82.2374 116.425 85.6022 117.011 87.0952C120.353 83.6994 124.329 81.345 126.65 80.3185C128.883 82.1682 130.624 85.059 131.931 88.0984C133.366 87.5079 138.153 86.4397 140.796 86.6348C141.43 87.3283 142.979 89.5795 144.105 93.037C146.379 91.9265 148.405 91.1693 149.975 90.7333Z" fill="#C1495E"/>
<path d="M113.598 145.151C97.9736 140.153 94.849 128.795 93.0276 118.246C92.1444 112.927 91.589 98.1511 96.4323 81.6C98.5318 82.7851 101.907 84.8399 104.24 86.7931M113.598 145.151C120.152 145.983 132.034 144.281 139.987 133.058C148.118 121.583 150.75 112.748 149.975 90.7333C148.405 91.1693 146.379 91.9265 144.105 93.037M113.598 145.151C119.562 134.76 121.428 125.343 120.777 117.093M120.777 117.093C124.191 109.064 129.561 103.067 134.963 98.8046M120.777 117.093C120.08 108.26 116.496 100.766 111.964 94.8472M134.963 98.8046C134.611 96.3195 133.644 92.0813 131.931 88.0984M134.963 98.8046C138.129 96.3066 141.305 94.4041 144.105 93.037M131.931 88.0984C130.624 85.059 128.883 82.1682 126.65 80.3185C124.329 81.345 120.353 83.6994 117.011 87.0952M131.931 88.0984C133.366 87.5079 138.153 86.4397 140.796 86.6348C141.43 87.3283 142.979 89.5795 144.105 93.037M111.964 94.8472C112.981 91.8845 114.866 89.2752 117.011 87.0952M111.964 94.8472C109.56 91.7069 106.889 89.0104 104.24 86.7931M117.011 87.0952C116.425 85.6022 114.404 82.2374 111.011 80.7225C109.36 81.4816 105.695 83.7583 104.24 86.7931" stroke="#3B4B38" stroke-width="0.1" stroke-linecap="round" stroke-linejoin="round"/>
<path fill-rule="evenodd" clip-rule="evenodd" d="M139.987 133.058C148.118 121.583 150.75 112.748 149.975 90.7333C148.405 91.1693 146.379 91.9265 144.105 93.037C141.305 94.4041 138.129 96.3066 134.963 98.8046C129.561 103.067 124.191 109.064 120.777 117.093C120.08 108.26 116.496 100.766 111.964 94.8472C109.56 91.7069 106.889 89.0104 104.24 86.7931C101.907 84.8399 98.5318 82.7851 96.4323 81.6C91.589 98.1511 92.1444 112.927 93.0276 118.246C94.849 128.795 97.9736 140.153 113.598 145.151C120.152 145.983 132.034 144.281 139.987 133.058Z" fill="#DC536C"/>
<path d="M113.598 145.151C97.9736 140.153 94.849 128.795 93.0276 118.246C92.1444 112.927 91.589 98.1511 96.4323 81.6C98.5318 82.7851 101.907 84.8399 104.24 86.7931M113.598 145.151C120.152 145.983 132.034 144.281 139.987 133.058C148.118 121.583 150.75 112.748 149.975 90.7333C148.405 91.1693 146.379 91.9265 144.105 93.037M113.598 145.151C119.562 134.76 121.428 125.343 120.777 117.093M120.777 117.093C124.191 109.064 129.561 103.067 134.963 98.8046M120.777 117.093C120.08 108.26 116.496 100.766 111.964 94.8472M134.963 98.8046C134.611 96.3195 133.644 92.0813 131.931 88.0984M134.963 98.8046C138.129 96.3066 141.305 94.4041 144.105 93.037M131.931 88.0984C130.624 85.059 128.883 82.1682 126.65 80.3185C124.329 81.345 120.353 83.6994 117.011 87.0952M131.931 88.0984C133.366 87.5079 138.153 86.4397 140.796 86.6348C141.43 87.3283 142.979 89.5795 144.105 93.037M111.964 94.8472C112.981 91.8845 114.866 89.2752 117.011 87.0952M111.964 94.8472C109.56 91.7069 106.889 89.0104 104.24 86.7931M117.011 87.0952C116.425 85.6022 114.404 82.2374 111.011 80.7225C109.36 81.4816 105.695 83.7583 104.24 86.7931" stroke="#3B4B38" stroke-width="0.5" stroke-linecap="round" stroke-linejoin="round"/>
<path d="M206.458 22.4625C207.006 38.0281 205.145 44.2751 199.396 52.3882C193.773 60.3234 185.372 61.5266 180.737 60.9385C169.69 57.4047 167.481 49.3744 166.193 41.9153C165.569 38.1545 165.176 27.7072 168.6 16.0047C170.085 16.8427 172.472 18.2955 174.121 19.6765C175.15 17.5308 177.741 15.921 178.908 15.3843C181.307 16.4554 182.736 18.8345 183.151 19.8901C185.514 17.4891 188.325 15.8245 189.966 15.0986C191.545 16.4065 192.776 18.4504 193.7 20.5994C194.715 20.1819 198.099 19.4267 199.968 19.5646C200.416 20.0549 201.511 21.6466 202.308 24.0913C203.916 23.3061 205.348 22.7707 206.458 22.4625Z" fill="#C1495E"/>
<path d="M180.737 60.9385C169.69 57.4047 167.481 49.3744 166.193 41.9153C165.569 38.1545 165.176 27.7072 168.6 16.0047C170.085 16.8427 172.472 18.2955 174.121 19.6765M180.737 60.9385C185.372 61.5266 193.773 60.3234 199.396 52.3882C205.145 44.2751 207.006 38.0281 206.458 22.4625C205.348 22.7707 203.916 23.3061 202.308 24.0913M180.737 60.9385C184.954 53.5917 186.274 46.9333 185.814 41.1005M185.814 41.1005C188.227 35.4236 192.024 31.1834 195.844 28.1693M185.814 41.1005C185.32 34.855 182.786 29.5559 179.582 25.3712M195.844 28.1693C195.595 26.4122 194.911 23.4156 193.7 20.5994M195.844 28.1693C198.082 26.4031 200.328 25.0579 202.308 24.0913M193.7 20.5994C192.776 18.4504 191.545 16.4065 189.966 15.0986C188.325 15.8245 185.514 17.4891 183.151 19.8901M193.7 20.5994C194.715 20.1819 198.099 19.4267 199.968 19.5646C200.416 20.0549 201.511 21.6466 202.308 24.0913M179.582 25.3712C180.302 23.2764 181.634 21.4315 183.151 19.8901M179.582 25.3712C177.882 23.1509 175.994 21.2443 174.121 19.6765M183.151 19.8901C182.736 18.8345 181.307 16.4554 178.908 15.3843C177.741 15.921 175.15 17.5308 174.121 19.6765" stroke="#3B4B38" stroke-width="0.1" stroke-linecap="round" stroke-linejoin="round"/>
<path fill-rule="evenodd" clip-rule="evenodd" d="M199.396 52.3882C205.145 44.2751 207.006 38.0281 206.458 22.4625C205.348 22.7707 203.916 23.3061 202.308 24.0913C200.328 25.0579 198.082 26.4031 195.844 28.1693C192.024 31.1834 188.227 35.4236 185.814 41.1005C185.32 34.855 182.786 29.5559 179.582 25.3712C177.882 23.1509 175.994 21.2443 174.121 19.6765C172.472 18.2955 170.085 16.8427 168.6 16.0047C165.176 27.7072 165.569 38.1545 166.193 41.9153C167.481 49.3744 169.69 57.4047 180.737 60.9385C185.372 61.5266 193.773 60.3234 199.396 52.3882Z" fill="#DC536C"/>
<path d="M180.737 60.9385C169.69 57.4047 167.481 49.3744 166.193 41.9153C165.569 38.1545 165.176 27.7072 168.6 16.0047C170.085 16.8427 172.472 18.2955 174.121 19.6765M180.737 60.9385C185.372 61.5266 193.773 60.3234 199.396 52.3882C205.145 44.2751 207.006 38.0281 206.458 22.4625C205.348 22.7707 203.916 23.3061 202.308 24.0913M180.737 60.9385C184.954 53.5917 186.274 46.9333 185.814 41.1005M185.814 41.1005C188.227 35.4236 192.024 31.1834 195.844 28.1693M185.814 41.1005C185.32 34.855 182.786 29.5559 179.582 25.3712M195.844 28.1693C195.595 26.4122 194.911 23.4156 193.7 20.5994M195.844 28.1693C198.082 26.4031 200.328 25.0579 202.308 24.0913M193.7 20.5994C192.776 18.4504 191.545 16.4065 189.966 15.0986C188.325 15.8245 185.514 17.4891 183.151 19.8901M193.7 20.5994C194.715 20.1819 198.099 19.4267 199.968 19.5646C200.416 20.0549 201.511 21.6466 202.308 24.0913M179.582 25.3712C180.302 23.2764 181.634 21.4315 183.151 19.8901M179.582 25.3712C177.882 23.1509 175.994 21.2443 174.121 19.6765M183.151 19.8901C182.736 18.8345 181.307 16.4554 178.908 15.3843C177.741 15.921 175.15 17.5308 174.121 19.6765" stroke="#3B4B38" stroke-width="0.5" stroke-linecap="round" stroke-linejoin="round"/>
</svg>
